<svg id="Capa_1" enable-background="new 0 0 497 497" height="512" viewBox="0 0 497 497" width="512" xmlns="http://www.w3.org/2000/svg"><g id="_x3C_Group_x3E__9_"><path d="m497 465v29c0 1.657-1.343 3-3 3h-479c-4.14 0-7.89-1.68-10.6-4.4-2.72-2.71-4.4-6.46-4.4-10.6v-479c0-1.657 1.343-3 3-3h29c1.657 0 3 1.343 3 3v456c0 1.657 1.343 3 3 3h456c1.657 0 3 1.343 3 3z" fill="#5f6c75"/><path d="m497 481v13c0 1.657-1.343 3-3 3h-479c-4.14 0-7.89-1.68-10.6-4.4-2.72-2.71-4.4-6.46-4.4-10.6v-479c0-1.657 1.343-3 3-3h13v473c0 4.418 3.582 8 8 8z" fill="#4e5a61"/><path d="m441.61 106.032-139.871 177.248c-3.497 4.343-14.907 3.52-19.203-.036l-47.366-39.214-8.044-.36c-4.443-3.678-11.068-2.845-14.462 1.818l-109.256 148.984c-4.811 6.609-1.129 12.528 7.046 12.528l333.344.585c5.523 0 9.191-3.669 9.191-9.191l5.681-6.034v-278.67-4.681c0-9.437-11.142-10.328-17.06-2.977z" fill="#ffe07d"/><path d="m134.337 382.834 100.833-138.804-7.54-6.24c-4.44-3.68-11.07-2.85-14.46 1.82l-112.73 154.86c-4.81 6.61-.09 15.89 8.09 15.89h6.44 333.7c5.523 0 10-4.477 10-10v-8h-319.479c-4.902 0-7.735-5.56-4.854-9.526z" fill="#ffd064"/><path d="m458.67 109.01v4.68l-145.97 181.12c-3.49 4.35-9.87 4.99-14.16 1.43l-14.41-11.93c4.15 2.29 9.49 1.34 12.57-2.5l144.18-179.07c5.92-7.35 17.79-3.17 17.79 6.27z" fill="#ffd064"/><path d="m368.5 92.558c6.532 4.73 15.689.179 15.863-7.883l1.101-52.404c-.004-.041-.001 0-.004-.041-.419-5.552-2.396-12.426-10.578-13.687-1.304-.201-2.724-.276-4.267-.203-.003 0-.006.001-.009.001l-56.982 14.19c-8.003 1.993-10.289 12.271-3.885 17.468l13.921 11.299c2.146 1.741 2.472 4.893.728 7.037l-58.408 71.818c-1.052 1.293-2.956 1.481-4.241.418l-48.684-40.305c-5.294-4.382-12.237-6.399-19.06-5.546-6.818.857-13.049 4.536-17.094 10.093l-105.238 144.579c-4.876 6.697-3.398 16.079 3.3 20.954.985.718 2.029 1.298 3.107 1.743 1.838.76 4.474-1.14 6.402-1.14 4.635 0 8.734-2.793 11.67-6.826l101.129-138.17c1.018-1.399 3.006-1.649 4.339-.545l46.89 39.216c5.193 4.299 11.756 6.294 18.456 5.615 6.708-.678 12.731-3.943 16.933-9.161l62.616-77.27c1.674-2.058 4.663-2.451 6.812-.895z" fill="#94d4a2"/><path d="m387.09 31.69c0-.04-.02-.08-.02-.12-.41-5.56-4-11.77-12.19-13.02l-.903 56.771c-.039 2.432-2.803 3.809-4.768 2.376l-14.519-10.597c-2.15-1.55-5.14-1.16-6.81.9l-75.816 88.413c-3.555 4.146-9.779 4.673-13.98 1.183l-51.863-43.073c-4.438-3.678-11.059-2.851-14.458 1.804l-113.693 155.763c1.84.76 3.78 1.13 5.71 1.13 4.63 0 9.2-2.14 12.14-6.17l100.23-137.7c1.01-1.4 3-1.65 4.33-.54l48.35 40.02c5.2 4.3 11.76 6.3 18.46 5.62 6.71-.68 12.73-3.95 16.93-9.16l63.66-78.29c1.67-2.06 4.66-2.45 6.81-.9l9.645 6.99c-.002 0-.003 0-.005 0 4.319 2.968 8.933 7.978 15.298 5.227.184-.076.37-.144.549-.23 2.896-1.427 5.621-4.579 5.673-8.796z" fill="#7fcb8f"/></g></svg>