<svg id="Capa_1" enable-background="new 0 0 512 512" height="512" viewBox="0 0 512 512" width="512" xmlns="http://www.w3.org/2000/svg"><g><g><path d="m512 256c0 40.57-9.44 78.94-26.25 113.03-9.14 18.55-34.98-10.73-48.16 4.95-28 33.35-49.84 106.01-91.33 121.65-28.07 10.58-58.49 16.37-90.26 16.37-15.5 0-30.69-1.38-45.43-4.02-51.46-9.21-67.622-78.764-103.482-113.814-12.8-12.5-54.258 18.624-64.218 3.694-27.08-40.61-42.87-89.39-42.87-141.86 0-141.38 114.62-256 256-256s256 114.62 256 256z" fill="#9dc6fb"/><g><path d="m210.57 429.09v78.89c-69.81-12.5-129.81-53.31-167.7-110.12 10.94-19.41 31.73-32.51 55.58-32.51h48.38c35.21 0 63.74 28.54 63.74 63.74z" fill="#dd5790"/><path d="m140.86 365.35c-35.2 0-63.74 28.53-63.74 63.74v10.03c-12.8-12.5-24.29-26.33-34.25-41.26 10.92-19.41 31.72-32.51 55.58-32.51z" fill="#9d549b"/><path d="m151.198 294.187v75.518c0 7.967-3.231 15.177-8.451 20.389-5.212 5.22-12.422 8.451-20.389 8.451-5.612 0-10.849-1.598-15.27-4.379-8.145-5.093-13.57-14.148-13.57-24.461v-75.518z" fill="#ffddce"/><path d="m151.198 294.187v71.972c-3.928.553-7.933.833-12.014.833-16.758 0-32.411-4.761-45.666-13.009v-59.797h57.68z" fill="#ffcbbe"/><path d="m107.088 323.503v70.663c-8.145-5.093-13.57-14.148-13.57-24.461v-46.202z" fill="#ffcbbe"/><path d="m104.222 92.319c-31.018 0-56.977 21.588-63.718 50.554l-15.366-15.366c-10.949 10.949-13.143 27.328-6.602 40.464h-18.536c0 19.387 15.716 35.103 35.103 35.103 1.243 0 2.469-.067 3.679-.193v6.208h107.157v-116.77z" fill="#21386b"/><path d="m42.406 213.392c-13.709 13.709-13.709 35.935 0 49.643 13.709 13.709 35.935 13.709 49.643 0" fill="#26457d"/><path d="m231.32 243.955h-191.636c-12.407 0-22.464-10.058-22.464-22.464 0-12.407 10.058-22.464 22.464-22.464h191.636c12.407 0 22.464 10.058 22.464 22.464.001 12.406-10.057 22.464-22.464 22.464z" fill="#ffcbbe"/><path d="m39.685 231.088c-5.292 0-9.597-4.305-9.597-9.597s4.305-9.597 9.597-9.597h191.635c5.292 0 9.597 4.305 9.597 9.597s-4.305 9.597-9.597 9.597z" fill="#eaac9d"/><path d="m139.184 353.985c-47.855 0-86.649-38.794-86.649-86.649v-61.434c0-47.855 38.794-86.649 86.649-86.649h48.29c21.185 0 38.358 17.174 38.358 38.358v109.724c.001 47.856-38.793 86.65-86.648 86.65z" fill="#ffddce"/><path d="m160.567 351.324c-6.838 1.737-13.998 2.656-21.378 2.656-47.858 0-86.653-38.786-86.653-86.644v-61.433c0-47.858 38.795-86.653 86.653-86.653h42.747c-47.848 0-86.644 38.795-86.644 86.653v61.433c0 40.487 27.757 74.475 65.275 83.988z" fill="#ffcbbe"/><path d="m116.742 221.949c-6.077 0-11.003-4.926-11.003-11.003v-22.923c0-6.077 4.926-11.003 11.003-11.003 6.077 0 11.003 4.926 11.003 11.003v22.923c0 6.077-4.927 11.003-11.003 11.003z" fill="#21386b"/><path d="m184.594 221.949c-6.077 0-11.003-4.926-11.003-11.003v-22.923c0-6.077 4.926-11.003 11.003-11.003 6.077 0 11.003 4.926 11.003 11.003v22.923c0 6.077-4.927 11.003-11.003 11.003z" fill="#21386b"/><path d="m161.671 244.413h-22.006v-114.156c0-6.077 4.926-11.003 11.003-11.003 6.077 0 11.003 4.926 11.003 11.003z" fill="#ffcbbe"/><path d="m75.92 103.339v13.064c-16.855 6.173-28.883 22.357-28.883 41.35v41.272h6.066c21.717 0 39.321-17.605 39.321-39.321v-26.413h18.465c16.135 0 29.215-13.08 29.215-29.215v-.738h-64.184z" fill="#21386b"/><path d="m218.791 101.51 19.585-19.586c-18.465-18.465-48.404-18.465-66.869 0v-27.697c-26.114 0-47.284 21.17-47.284 47.284s21.17 47.283 47.284 47.283h94.567c0-26.114-21.169-47.284-47.283-47.284z" fill="#26457d"/><g fill="#ffcbbe"><path d="m163.847 228.265h-17.727c-6.808 0-12.327 5.519-12.327 12.327 0 6.808 5.519 12.327 12.327 12.327h17.727c6.808 0 12.327-5.519 12.327-12.327 0-6.807-5.519-12.327-12.327-12.327z"/><path d="m143.354 301.31c-20.82 0-37.759-16.938-37.759-37.759 0-3.59 2.91-6.5 6.5-6.5s6.5 2.91 6.5 6.5c0 13.652 11.107 24.759 24.759 24.759 3.59 0 6.5 2.91 6.5 6.5s-2.91 6.5-6.5 6.5z"/></g></g><g><path d="m325.245 194.34v-96.466c0-46.763 37.909-84.672 84.672-84.672 46.763 0 84.672 37.909 84.672 84.672v95.339c9.787 1.053 17.409 9.337 17.409 19.404 0 10.78-8.739 19.519-19.519 19.519h-160.376c-10.78 0-19.519-8.739-19.519-19.519-.001-8.367 5.264-15.501 12.661-18.277z" fill="#ffe07d"/><path d="m442.621 212.612c0 5.394-2.181 10.272-5.711 13.81-3.53 3.53-8.416 5.711-13.802 5.711h69.371c5.386 0 10.272-2.181 13.802-5.711 3.53-3.538 5.719-8.416 5.719-13.81 0-10.066-7.623-18.347-17.411-19.402v-95.336c0-23.384-9.479-44.547-24.804-59.872-15.317-15.325-36.488-24.804-59.872-24.804-6.671 0-13.159.769-19.386 2.229 15.595 3.657 29.531 11.621 40.486 22.575 15.325 15.325 24.804 36.488 24.804 59.872v95.336c9.78 1.055-13.196 9.337-13.196 19.402z" fill="#ffc250"/><path d="m485.75 312.8v56.23c-4.28 8.68-9.04 17.09-14.24 25.18-5.91 9.2-12.39 17.99-19.4 26.33-4.61 5.5-9.46 10.8-14.52 15.89-25.61 25.78-56.68 46.14-91.33 59.2v-182.83c0-27.92 22.63-50.56 50.56-50.56h38.38c27.92 0 50.55 22.64 50.55 50.56z" fill="#78c2a4"/><path d="m485.75 312.8v56.23c-9.14 18.55-20.46 35.83-33.64 51.51v-107.74c0-27.93-22.64-50.56-50.56-50.56h33.64c27.93 0 50.56 22.63 50.56 50.56z" fill="#66b394"/><path d="m393.355 205.792v59.902c0 6.319 2.563 12.038 6.704 16.172 4.134 4.141 9.853 6.704 16.172 6.704 4.451 0 8.606-1.268 12.113-3.473 6.461-4.04 10.764-11.222 10.764-19.403v-59.902z" fill="#ffddce"/><g fill="#ffcbbe"><path d="m393.355 205.792v57.089c3.116.438 6.292.661 9.53.661 13.293 0 25.709-3.777 36.223-10.319v-47.432h-45.753z"/><path d="m428.344 229.046v56.051c6.461-4.04 10.764-11.222 10.764-19.403v-36.648z"/><path d="m329.801 165.947h152.008c9.841 0 17.819-7.978 17.819-17.819 0-9.841-7.978-17.819-17.819-17.819h-152.008c-9.841 0-17.819 7.978-17.819 17.819 0 9.841 7.978 17.819 17.819 17.819z"/></g><path d="m481.809 155.74c4.198 0 7.613-3.415 7.613-7.612 0-4.198-3.415-7.613-7.613-7.613h-152.008c-4.198 0-7.613 3.415-7.613 7.612s3.415 7.613 7.613 7.613z" fill="#eaac9d"/><path d="m334.153 117.816v66.678c0 37.955 30.769 68.732 68.732 68.732 37.955 0 68.732-30.777 68.732-68.732v-66.678c0-3.641-.286-7.218-.833-10.708h-56.842c-3.974 0-7.813-.579-11.438-1.666-6.734-1.999-12.731-5.727-17.459-10.669-3.538-3.681-6.377-8.035-8.305-12.85-5.917 14.754-20.338 25.185-37.21 25.185h-4.545c-.546 3.49-.832 7.067-.832 10.708z" fill="#ffddce"/><path d="m385.474 250.997c5.56 1.459 11.398 2.229 17.411 2.229 37.955 0 68.732-30.777 68.732-68.732v-66.678c0-3.641-.286-7.218-.833-10.708h-34.814c.547 3.49.833 7.068.833 10.708v66.678c0 31.942-21.797 58.801-51.329 66.503z" fill="#ffcbbe"/><path d="m385.046 94.773v71.54h17.459v-60.871c-6.735-1.999-12.731-5.727-17.459-10.669z" fill="#ffcbbe"/><path d="m383.322 153.502h14.061c5.4 0 9.778 4.378 9.778 9.778 0 5.4-4.378 9.778-9.778 9.778h-14.061c-5.4 0-9.778-4.378-9.778-9.778 0-5.4 4.378-9.778 9.778-9.778z" fill="#ffcbbe"/><path d="m431.794 127.94c-4.523 0-9.045-1.721-12.488-5.164-1.953-1.953-1.953-5.119 0-7.071 1.953-1.953 5.118-1.953 7.071 0 2.987 2.988 7.847 2.987 10.835 0 1.953-1.953 5.118-1.952 7.071 0 1.953 1.953 1.953 5.119 0 7.071-3.443 3.442-7.967 5.164-12.489 5.164z" fill="#26457d"/><path d="m356.019 127.94c-4.523 0-9.045-1.721-12.488-5.164-1.953-1.952-1.953-5.118 0-7.071 1.952-1.953 5.119-1.953 7.071 0 2.987 2.987 7.849 2.987 10.835 0 1.953-1.953 5.118-1.953 7.071 0s1.953 5.119 0 7.071c-3.444 3.443-7.967 5.164-12.489 5.164z" fill="#26457d"/><path d="m404.905 211.442c16.515 0 29.951-13.436 29.951-29.951 0-2.848-2.308-5.156-5.156-5.156s-5.156 2.308-5.156 5.156c0 10.829-8.81 19.639-19.639 19.639-2.848 0-5.156 2.308-5.156 5.156s2.308 5.156 5.156 5.156z" fill="#ffcbbe"/><path d="m420.686 148.491c4.82 0 8.728-3.908 8.728-8.728v-18.183c0-4.82-3.908-8.728-8.728-8.728-4.82 0-8.728 3.908-8.728 8.728v18.183c.001 4.821 3.908 8.728 8.728 8.728z" fill="#21386b"/><path d="m366.865 148.491c4.82 0 8.728-3.908 8.728-8.728v-18.183c0-4.82-3.908-8.728-8.728-8.728-4.82 0-8.728 3.908-8.728 8.728v18.183c.001 4.821 3.908 8.728 8.728 8.728z" fill="#21386b"/><path d="m471.51 373.98v20.23c-9.8 15.26-21.18 29.41-33.92 42.22v-62.45z" fill="#ffddce"/><path d="m471.51 373.98v20.23c-5.91 9.2-12.39 17.99-19.4 26.33v-46.56z" fill="#ffcbbe"/></g><path d="m431.811 410.186-54.247-31.323c-5.099-2.944-11.473.736-11.473 6.624v8.775c0 4.224-3.424 7.648-7.648 7.648h-108.367c-4.224 0-7.648-3.424-7.648-7.648v-8.775c0-5.888-6.374-9.568-11.473-6.624l-54.247 31.323c-5.098 2.944-5.099 10.303 0 13.247l54.247 31.326c5.099 2.945 11.473-.735 11.473-6.623v-8.779c0-4.224 3.424-7.648 7.648-7.648h108.367c4.224 0 7.648 3.424 7.648 7.648v8.779c0 5.888 6.374 9.568 11.473 6.623l54.247-31.326c5.099-2.944 5.099-10.303 0-13.247z" fill="#21386b"/><g fill="#f9f6f6"><path d="m289.916 352.664c-9.95.125-20.59.196-28.296.178 4.44-5.859 11.367-15.166 21.617-29.812 4.877-6.969 8.048-13.513 9.424-19.45.181-1.015.525-3.517.561-4.543 0-14.781-12.025-26.806-26.807-26.806-12.781 0-23.843 9.091-26.304 21.617-.7 3.563 1.621 7.019 5.184 7.719s7.019-1.621 7.719-5.184c1.252-6.376 6.889-11.003 13.401-11.003 7.404 0 13.452 5.922 13.652 13.279l-.288 2.254c-1.039 4.223-3.499 9.125-7.315 14.578-12.553 17.936-20.046 27.747-24.072 33.018-4.838 6.334-6.467 8.468-5.301 12.262.668 2.172 2.321 3.841 4.537 4.58.871.29 1.972.658 17.176.658 5.971 0 14.117-.057 25.278-.197 3.631-.046 6.537-3.026 6.491-6.657-.046-3.63-3.067-6.537-6.657-6.491z"/><path d="m386.067 287.297c-8.83 0-16.735 4.03-21.976 10.346-5.241-6.316-13.146-10.346-21.976-10.346-5.702 0-11.014 1.687-15.476 4.578-.458-3.184-3.189-5.633-6.5-5.633-3.631 0-6.575 2.944-6.575 6.575v66.605c0 3.631 2.944 6.575 6.575 6.575s6.575-2.944 6.575-6.575v-43.574c0-8.492 6.909-15.401 15.401-15.401s15.401 6.909 15.401 15.401v43.574c0 3.631 2.944 6.575 6.575 6.575s6.574-2.944 6.574-6.575v-43.574c0-8.492 6.909-15.401 15.401-15.401s15.402 6.909 15.402 15.401v43.574c0 3.631 2.944 6.575 6.575 6.575s6.575-2.944 6.575-6.575v-43.574c-.001-15.743-12.808-28.551-28.551-28.551z"/></g></g><g><path d="m512 256c0 40.57-9.44 78.94-26.25 113.03-9.14 18.55-34.98-10.73-48.16 4.95-28 33.35-49.84 106.01-91.33 121.65-28.07 10.58-58.49 16.37-90.26 16.37-15.5 0-30.69-1.38-45.43-4.02-51.46-9.21-67.622-78.764-103.482-113.814-12.8-12.5-54.258 18.624-64.218 3.694-27.08-40.61-42.87-89.39-42.87-141.86 0-141.38 114.62-256 256-256s256 114.62 256 256z" fill="#9dc6fb"/><g><path d="m210.57 429.09v78.89c-69.81-12.5-129.81-53.31-167.7-110.12 10.94-19.41 31.73-32.51 55.58-32.51h48.38c35.21 0 63.74 28.54 63.74 63.74z" fill="#dd5790"/><path d="m140.86 365.35c-35.2 0-63.74 28.53-63.74 63.74v10.03c-12.8-12.5-24.29-26.33-34.25-41.26 10.92-19.41 31.72-32.51 55.58-32.51z" fill="#9d549b"/><path d="m151.198 294.187v75.518c0 7.967-3.231 15.177-8.451 20.389-5.212 5.22-12.422 8.451-20.389 8.451-5.612 0-10.849-1.598-15.27-4.379-8.145-5.093-13.57-14.148-13.57-24.461v-75.518z" fill="#ffddce"/><path d="m151.198 294.187v71.972c-3.928.553-7.933.833-12.014.833-16.758 0-32.411-4.761-45.666-13.009v-59.797h57.68z" fill="#ffcbbe"/><path d="m107.088 323.503v70.663c-8.145-5.093-13.57-14.148-13.57-24.461v-46.202z" fill="#ffcbbe"/><path d="m104.222 92.319c-31.018 0-56.977 21.588-63.718 50.554l-15.366-15.366c-10.949 10.949-13.143 27.328-6.602 40.464h-18.536c0 19.387 15.716 35.103 35.103 35.103 1.243 0 2.469-.067 3.679-.193v6.208h107.157v-116.77z" fill="#21386b"/><path d="m42.406 213.392c-13.709 13.709-13.709 35.935 0 49.643 13.709 13.709 35.935 13.709 49.643 0" fill="#26457d"/><path d="m231.32 243.955h-191.636c-12.407 0-22.464-10.058-22.464-22.464 0-12.407 10.058-22.464 22.464-22.464h191.636c12.407 0 22.464 10.058 22.464 22.464.001 12.406-10.057 22.464-22.464 22.464z" fill="#ffcbbe"/><path d="m39.685 231.088c-5.292 0-9.597-4.305-9.597-9.597s4.305-9.597 9.597-9.597h191.635c5.292 0 9.597 4.305 9.597 9.597s-4.305 9.597-9.597 9.597z" fill="#eaac9d"/><path d="m139.184 353.985c-47.855 0-86.649-38.794-86.649-86.649v-61.434c0-47.855 38.794-86.649 86.649-86.649h48.29c21.185 0 38.358 17.174 38.358 38.358v109.724c.001 47.856-38.793 86.65-86.648 86.65z" fill="#ffddce"/><path d="m160.567 351.324c-6.838 1.737-13.998 2.656-21.378 2.656-47.858 0-86.653-38.786-86.653-86.644v-61.433c0-47.858 38.795-86.653 86.653-86.653h42.747c-47.848 0-86.644 38.795-86.644 86.653v61.433c0 40.487 27.757 74.475 65.275 83.988z" fill="#ffcbbe"/><path d="m116.742 221.949c-6.077 0-11.003-4.926-11.003-11.003v-22.923c0-6.077 4.926-11.003 11.003-11.003 6.077 0 11.003 4.926 11.003 11.003v22.923c0 6.077-4.927 11.003-11.003 11.003z" fill="#21386b"/><path d="m184.594 221.949c-6.077 0-11.003-4.926-11.003-11.003v-22.923c0-6.077 4.926-11.003 11.003-11.003 6.077 0 11.003 4.926 11.003 11.003v22.923c0 6.077-4.927 11.003-11.003 11.003z" fill="#21386b"/><path d="m161.671 244.413h-22.006v-114.156c0-6.077 4.926-11.003 11.003-11.003 6.077 0 11.003 4.926 11.003 11.003z" fill="#ffcbbe"/><path d="m75.92 103.339v13.064c-16.855 6.173-28.883 22.357-28.883 41.35v41.272h6.066c21.717 0 39.321-17.605 39.321-39.321v-26.413h18.465c16.135 0 29.215-13.08 29.215-29.215v-.738h-64.184z" fill="#21386b"/><path d="m218.791 101.51 19.585-19.586c-18.465-18.465-48.404-18.465-66.869 0v-27.697c-26.114 0-47.284 21.17-47.284 47.284s21.17 47.283 47.284 47.283h94.567c0-26.114-21.169-47.284-47.283-47.284z" fill="#26457d"/><g fill="#ffcbbe"><path d="m163.847 228.265h-17.727c-6.808 0-12.327 5.519-12.327 12.327 0 6.808 5.519 12.327 12.327 12.327h17.727c6.808 0 12.327-5.519 12.327-12.327 0-6.807-5.519-12.327-12.327-12.327z"/><path d="m143.354 301.31c-20.82 0-37.759-16.938-37.759-37.759 0-3.59 2.91-6.5 6.5-6.5s6.5 2.91 6.5 6.5c0 13.652 11.107 24.759 24.759 24.759 3.59 0 6.5 2.91 6.5 6.5s-2.91 6.5-6.5 6.5z"/></g></g><g><path d="m325.245 194.34v-96.466c0-46.763 37.909-84.672 84.672-84.672 46.763 0 84.672 37.909 84.672 84.672v95.339c9.787 1.053 17.409 9.337 17.409 19.404 0 10.78-8.739 19.519-19.519 19.519h-160.376c-10.78 0-19.519-8.739-19.519-19.519-.001-8.367 5.264-15.501 12.661-18.277z" fill="#ffe07d"/><path d="m442.621 212.612c0 5.394-2.181 10.272-5.711 13.81-3.53 3.53-8.416 5.711-13.802 5.711h69.371c5.386 0 10.272-2.181 13.802-5.711 3.53-3.538 5.719-8.416 5.719-13.81 0-10.066-7.623-18.347-17.411-19.402v-95.336c0-23.384-9.479-44.547-24.804-59.872-15.317-15.325-36.488-24.804-59.872-24.804-6.671 0-13.159.769-19.386 2.229 15.595 3.657 29.531 11.621 40.486 22.575 15.325 15.325 24.804 36.488 24.804 59.872v95.336c9.78 1.055-13.196 9.337-13.196 19.402z" fill="#ffc250"/><path d="m485.75 312.8v56.23c-4.28 8.68-9.04 17.09-14.24 25.18-5.91 9.2-12.39 17.99-19.4 26.33-4.61 5.5-9.46 10.8-14.52 15.89-25.61 25.78-56.68 46.14-91.33 59.2v-182.83c0-27.92 22.63-50.56 50.56-50.56h38.38c27.92 0 50.55 22.64 50.55 50.56z" fill="#78c2a4"/><path d="m485.75 312.8v56.23c-9.14 18.55-20.46 35.83-33.64 51.51v-107.74c0-27.93-22.64-50.56-50.56-50.56h33.64c27.93 0 50.56 22.63 50.56 50.56z" fill="#66b394"/><path d="m393.355 205.792v59.902c0 6.319 2.563 12.038 6.704 16.172 4.134 4.141 9.853 6.704 16.172 6.704 4.451 0 8.606-1.268 12.113-3.473 6.461-4.04 10.764-11.222 10.764-19.403v-59.902z" fill="#ffddce"/><g fill="#ffcbbe"><path d="m393.355 205.792v57.089c3.116.438 6.292.661 9.53.661 13.293 0 25.709-3.777 36.223-10.319v-47.432h-45.753z"/><path d="m428.344 229.046v56.051c6.461-4.04 10.764-11.222 10.764-19.403v-36.648z"/><path d="m329.801 165.947h152.008c9.841 0 17.819-7.978 17.819-17.819 0-9.841-7.978-17.819-17.819-17.819h-152.008c-9.841 0-17.819 7.978-17.819 17.819 0 9.841 7.978 17.819 17.819 17.819z"/></g><path d="m481.809 155.74c4.198 0 7.613-3.415 7.613-7.612 0-4.198-3.415-7.613-7.613-7.613h-152.008c-4.198 0-7.613 3.415-7.613 7.612s3.415 7.613 7.613 7.613z" fill="#eaac9d"/><path d="m334.153 117.816v66.678c0 37.955 30.769 68.732 68.732 68.732 37.955 0 68.732-30.777 68.732-68.732v-66.678c0-3.641-.286-7.218-.833-10.708h-56.842c-3.974 0-7.813-.579-11.438-1.666-6.734-1.999-12.731-5.727-17.459-10.669-3.538-3.681-6.377-8.035-8.305-12.85-5.917 14.754-20.338 25.185-37.21 25.185h-4.545c-.546 3.49-.832 7.067-.832 10.708z" fill="#ffddce"/><path d="m385.474 250.997c5.56 1.459 11.398 2.229 17.411 2.229 37.955 0 68.732-30.777 68.732-68.732v-66.678c0-3.641-.286-7.218-.833-10.708h-34.814c.547 3.49.833 7.068.833 10.708v66.678c0 31.942-21.797 58.801-51.329 66.503z" fill="#ffcbbe"/><path d="m385.046 94.773v71.54h17.459v-60.871c-6.735-1.999-12.731-5.727-17.459-10.669z" fill="#ffcbbe"/><path d="m383.322 153.502h14.061c5.4 0 9.778 4.378 9.778 9.778 0 5.4-4.378 9.778-9.778 9.778h-14.061c-5.4 0-9.778-4.378-9.778-9.778 0-5.4 4.378-9.778 9.778-9.778z" fill="#ffcbbe"/><path d="m431.794 127.94c-4.523 0-9.045-1.721-12.488-5.164-1.953-1.953-1.953-5.119 0-7.071 1.953-1.953 5.118-1.953 7.071 0 2.987 2.988 7.847 2.987 10.835 0 1.953-1.953 5.118-1.952 7.071 0 1.953 1.953 1.953 5.119 0 7.071-3.443 3.442-7.967 5.164-12.489 5.164z" fill="#26457d"/><path d="m356.019 127.94c-4.523 0-9.045-1.721-12.488-5.164-1.953-1.952-1.953-5.118 0-7.071 1.952-1.953 5.119-1.953 7.071 0 2.987 2.987 7.849 2.987 10.835 0 1.953-1.953 5.118-1.953 7.071 0s1.953 5.119 0 7.071c-3.444 3.443-7.967 5.164-12.489 5.164z" fill="#26457d"/><path d="m404.905 211.442c16.515 0 29.951-13.436 29.951-29.951 0-2.848-2.308-5.156-5.156-5.156s-5.156 2.308-5.156 5.156c0 10.829-8.81 19.639-19.639 19.639-2.848 0-5.156 2.308-5.156 5.156s2.308 5.156 5.156 5.156z" fill="#ffcbbe"/><path d="m420.686 148.491c4.82 0 8.728-3.908 8.728-8.728v-18.183c0-4.82-3.908-8.728-8.728-8.728-4.82 0-8.728 3.908-8.728 8.728v18.183c.001 4.821 3.908 8.728 8.728 8.728z" fill="#21386b"/><path d="m366.865 148.491c4.82 0 8.728-3.908 8.728-8.728v-18.183c0-4.82-3.908-8.728-8.728-8.728-4.82 0-8.728 3.908-8.728 8.728v18.183c.001 4.821 3.908 8.728 8.728 8.728z" fill="#21386b"/><path d="m471.51 373.98v20.23c-9.8 15.26-21.18 29.41-33.92 42.22v-62.45z" fill="#ffddce"/><path d="m471.51 373.98v20.23c-5.91 9.2-12.39 17.99-19.4 26.33v-46.56z" fill="#ffcbbe"/></g><path d="m431.811 410.186-54.247-31.323c-5.099-2.944-11.473.736-11.473 6.624v8.775c0 4.224-3.424 7.648-7.648 7.648h-108.367c-4.224 0-7.648-3.424-7.648-7.648v-8.775c0-5.888-6.374-9.568-11.473-6.624l-54.247 31.323c-5.098 2.944-5.099 10.303 0 13.247l54.247 31.326c5.099 2.945 11.473-.735 11.473-6.623v-8.779c0-4.224 3.424-7.648 7.648-7.648h108.367c4.224 0 7.648 3.424 7.648 7.648v8.779c0 5.888 6.374 9.568 11.473 6.623l54.247-31.326c5.099-2.944 5.099-10.303 0-13.247z" fill="#21386b"/><g fill="#f9f6f6"><path d="m289.916 352.664c-9.95.125-20.59.196-28.296.178 4.44-5.859 11.367-15.166 21.617-29.812 4.877-6.969 8.048-13.513 9.424-19.45.181-1.015.525-3.517.561-4.543 0-14.781-12.025-26.806-26.807-26.806-12.781 0-23.843 9.091-26.304 21.617-.7 3.563 1.621 7.019 5.184 7.719s7.019-1.621 7.719-5.184c1.252-6.376 6.889-11.003 13.401-11.003 7.404 0 13.452 5.922 13.652 13.279l-.288 2.254c-1.039 4.223-3.499 9.125-7.315 14.578-12.553 17.936-20.046 27.747-24.072 33.018-4.838 6.334-6.467 8.468-5.301 12.262.668 2.172 2.321 3.841 4.537 4.58.871.29 1.972.658 17.176.658 5.971 0 14.117-.057 25.278-.197 3.631-.046 6.537-3.026 6.491-6.657-.046-3.63-3.067-6.537-6.657-6.491z"/><path d="m386.067 287.297c-8.83 0-16.735 4.03-21.976 10.346-5.241-6.316-13.146-10.346-21.976-10.346-5.702 0-11.014 1.687-15.476 4.578-.458-3.184-3.189-5.633-6.5-5.633-3.631 0-6.575 2.944-6.575 6.575v66.605c0 3.631 2.944 6.575 6.575 6.575s6.575-2.944 6.575-6.575v-43.574c0-8.492 6.909-15.401 15.401-15.401s15.401 6.909 15.401 15.401v43.574c0 3.631 2.944 6.575 6.575 6.575s6.574-2.944 6.574-6.575v-43.574c0-8.492 6.909-15.401 15.401-15.401s15.402 6.909 15.402 15.401v43.574c0 3.631 2.944 6.575 6.575 6.575s6.575-2.944 6.575-6.575v-43.574c-.001-15.743-12.808-28.551-28.551-28.551z"/></g></g><g><path d="m512 256c0 40.57-9.44 78.94-26.25 113.03-9.14 18.55-34.98-10.73-48.16 4.95-28 33.35-49.84 106.01-91.33 121.65-28.07 10.58-58.49 16.37-90.26 16.37-15.5 0-30.69-1.38-45.43-4.02-51.46-9.21-67.622-78.764-103.482-113.814-12.8-12.5-54.258 18.624-64.218 3.694-27.08-40.61-42.87-89.39-42.87-141.86 0-141.38 114.62-256 256-256s256 114.62 256 256z" fill="#9dc6fb"/><g><path d="m210.57 429.09v78.89c-69.81-12.5-129.81-53.31-167.7-110.12 10.94-19.41 31.73-32.51 55.58-32.51h48.38c35.21 0 63.74 28.54 63.74 63.74z" fill="#dd5790"/><path d="m140.86 365.35c-35.2 0-63.74 28.53-63.74 63.74v10.03c-12.8-12.5-24.29-26.33-34.25-41.26 10.92-19.41 31.72-32.51 55.58-32.51z" fill="#9d549b"/><path d="m151.198 294.187v75.518c0 7.967-3.231 15.177-8.451 20.389-5.212 5.22-12.422 8.451-20.389 8.451-5.612 0-10.849-1.598-15.27-4.379-8.145-5.093-13.57-14.148-13.57-24.461v-75.518z" fill="#ffddce"/><path d="m151.198 294.187v71.972c-3.928.553-7.933.833-12.014.833-16.758 0-32.411-4.761-45.666-13.009v-59.797h57.68z" fill="#ffcbbe"/><path d="m107.088 323.503v70.663c-8.145-5.093-13.57-14.148-13.57-24.461v-46.202z" fill="#ffcbbe"/><path d="m104.222 92.319c-31.018 0-56.977 21.588-63.718 50.554l-15.366-15.366c-10.949 10.949-13.143 27.328-6.602 40.464h-18.536c0 19.387 15.716 35.103 35.103 35.103 1.243 0 2.469-.067 3.679-.193v6.208h107.157v-116.77z" fill="#21386b"/><path d="m42.406 213.392c-13.709 13.709-13.709 35.935 0 49.643 13.709 13.709 35.935 13.709 49.643 0" fill="#26457d"/><path d="m231.32 243.955h-191.636c-12.407 0-22.464-10.058-22.464-22.464 0-12.407 10.058-22.464 22.464-22.464h191.636c12.407 0 22.464 10.058 22.464 22.464.001 12.406-10.057 22.464-22.464 22.464z" fill="#ffcbbe"/><path d="m39.685 231.088c-5.292 0-9.597-4.305-9.597-9.597s4.305-9.597 9.597-9.597h191.635c5.292 0 9.597 4.305 9.597 9.597s-4.305 9.597-9.597 9.597z" fill="#eaac9d"/><path d="m139.184 353.985c-47.855 0-86.649-38.794-86.649-86.649v-61.434c0-47.855 38.794-86.649 86.649-86.649h48.29c21.185 0 38.358 17.174 38.358 38.358v109.724c.001 47.856-38.793 86.65-86.648 86.65z" fill="#ffddce"/><path d="m160.567 351.324c-6.838 1.737-13.998 2.656-21.378 2.656-47.858 0-86.653-38.786-86.653-86.644v-61.433c0-47.858 38.795-86.653 86.653-86.653h42.747c-47.848 0-86.644 38.795-86.644 86.653v61.433c0 40.487 27.757 74.475 65.275 83.988z" fill="#ffcbbe"/><path d="m116.742 221.949c-6.077 0-11.003-4.926-11.003-11.003v-22.923c0-6.077 4.926-11.003 11.003-11.003 6.077 0 11.003 4.926 11.003 11.003v22.923c0 6.077-4.927 11.003-11.003 11.003z" fill="#21386b"/><path d="m184.594 221.949c-6.077 0-11.003-4.926-11.003-11.003v-22.923c0-6.077 4.926-11.003 11.003-11.003 6.077 0 11.003 4.926 11.003 11.003v22.923c0 6.077-4.927 11.003-11.003 11.003z" fill="#21386b"/><path d="m161.671 244.413h-22.006v-114.156c0-6.077 4.926-11.003 11.003-11.003 6.077 0 11.003 4.926 11.003 11.003z" fill="#ffcbbe"/><path d="m75.92 103.339v13.064c-16.855 6.173-28.883 22.357-28.883 41.35v41.272h6.066c21.717 0 39.321-17.605 39.321-39.321v-26.413h18.465c16.135 0 29.215-13.08 29.215-29.215v-.738h-64.184z" fill="#21386b"/><path d="m218.791 101.51 19.585-19.586c-18.465-18.465-48.404-18.465-66.869 0v-27.697c-26.114 0-47.284 21.17-47.284 47.284s21.17 47.283 47.284 47.283h94.567c0-26.114-21.169-47.284-47.283-47.284z" fill="#26457d"/><g fill="#ffcbbe"><path d="m163.847 228.265h-17.727c-6.808 0-12.327 5.519-12.327 12.327 0 6.808 5.519 12.327 12.327 12.327h17.727c6.808 0 12.327-5.519 12.327-12.327 0-6.807-5.519-12.327-12.327-12.327z"/><path d="m143.354 301.31c-20.82 0-37.759-16.938-37.759-37.759 0-3.59 2.91-6.5 6.5-6.5s6.5 2.91 6.5 6.5c0 13.652 11.107 24.759 24.759 24.759 3.59 0 6.5 2.91 6.5 6.5s-2.91 6.5-6.5 6.5z"/></g></g><g><path d="m325.245 194.34v-96.466c0-46.763 37.909-84.672 84.672-84.672 46.763 0 84.672 37.909 84.672 84.672v95.339c9.787 1.053 17.409 9.337 17.409 19.404 0 10.78-8.739 19.519-19.519 19.519h-160.376c-10.78 0-19.519-8.739-19.519-19.519-.001-8.367 5.264-15.501 12.661-18.277z" fill="#ffe07d"/><path d="m442.621 212.612c0 5.394-2.181 10.272-5.711 13.81-3.53 3.53-8.416 5.711-13.802 5.711h69.371c5.386 0 10.272-2.181 13.802-5.711 3.53-3.538 5.719-8.416 5.719-13.81 0-10.066-7.623-18.347-17.411-19.402v-95.336c0-23.384-9.479-44.547-24.804-59.872-15.317-15.325-36.488-24.804-59.872-24.804-6.671 0-13.159.769-19.386 2.229 15.595 3.657 29.531 11.621 40.486 22.575 15.325 15.325 24.804 36.488 24.804 59.872v95.336c9.78 1.055-13.196 9.337-13.196 19.402z" fill="#ffc250"/><path d="m485.75 312.8v56.23c-4.28 8.68-9.04 17.09-14.24 25.18-5.91 9.2-12.39 17.99-19.4 26.33-4.61 5.5-9.46 10.8-14.52 15.89-25.61 25.78-56.68 46.14-91.33 59.2v-182.83c0-27.92 22.63-50.56 50.56-50.56h38.38c27.92 0 50.55 22.64 50.55 50.56z" fill="#78c2a4"/><path d="m485.75 312.8v56.23c-9.14 18.55-20.46 35.83-33.64 51.51v-107.74c0-27.93-22.64-50.56-50.56-50.56h33.64c27.93 0 50.56 22.63 50.56 50.56z" fill="#66b394"/><path d="m393.355 205.792v59.902c0 6.319 2.563 12.038 6.704 16.172 4.134 4.141 9.853 6.704 16.172 6.704 4.451 0 8.606-1.268 12.113-3.473 6.461-4.04 10.764-11.222 10.764-19.403v-59.902z" fill="#ffddce"/><g fill="#ffcbbe"><path d="m393.355 205.792v57.089c3.116.438 6.292.661 9.53.661 13.293 0 25.709-3.777 36.223-10.319v-47.432h-45.753z"/><path d="m428.344 229.046v56.051c6.461-4.04 10.764-11.222 10.764-19.403v-36.648z"/><path d="m329.801 165.947h152.008c9.841 0 17.819-7.978 17.819-17.819 0-9.841-7.978-17.819-17.819-17.819h-152.008c-9.841 0-17.819 7.978-17.819 17.819 0 9.841 7.978 17.819 17.819 17.819z"/></g><path d="m481.809 155.74c4.198 0 7.613-3.415 7.613-7.612 0-4.198-3.415-7.613-7.613-7.613h-152.008c-4.198 0-7.613 3.415-7.613 7.612s3.415 7.613 7.613 7.613z" fill="#eaac9d"/><path d="m334.153 117.816v66.678c0 37.955 30.769 68.732 68.732 68.732 37.955 0 68.732-30.777 68.732-68.732v-66.678c0-3.641-.286-7.218-.833-10.708h-56.842c-3.974 0-7.813-.579-11.438-1.666-6.734-1.999-12.731-5.727-17.459-10.669-3.538-3.681-6.377-8.035-8.305-12.85-5.917 14.754-20.338 25.185-37.21 25.185h-4.545c-.546 3.49-.832 7.067-.832 10.708z" fill="#ffddce"/><path d="m385.474 250.997c5.56 1.459 11.398 2.229 17.411 2.229 37.955 0 68.732-30.777 68.732-68.732v-66.678c0-3.641-.286-7.218-.833-10.708h-34.814c.547 3.49.833 7.068.833 10.708v66.678c0 31.942-21.797 58.801-51.329 66.503z" fill="#ffcbbe"/><path d="m385.046 94.773v71.54h17.459v-60.871c-6.735-1.999-12.731-5.727-17.459-10.669z" fill="#ffcbbe"/><path d="m383.322 153.502h14.061c5.4 0 9.778 4.378 9.778 9.778 0 5.4-4.378 9.778-9.778 9.778h-14.061c-5.4 0-9.778-4.378-9.778-9.778 0-5.4 4.378-9.778 9.778-9.778z" fill="#ffcbbe"/><path d="m431.794 127.94c-4.523 0-9.045-1.721-12.488-5.164-1.953-1.953-1.953-5.119 0-7.071 1.953-1.953 5.118-1.953 7.071 0 2.987 2.988 7.847 2.987 10.835 0 1.953-1.953 5.118-1.952 7.071 0 1.953 1.953 1.953 5.119 0 7.071-3.443 3.442-7.967 5.164-12.489 5.164z" fill="#26457d"/><path d="m356.019 127.94c-4.523 0-9.045-1.721-12.488-5.164-1.953-1.952-1.953-5.118 0-7.071 1.952-1.953 5.119-1.953 7.071 0 2.987 2.987 7.849 2.987 10.835 0 1.953-1.953 5.118-1.953 7.071 0s1.953 5.119 0 7.071c-3.444 3.443-7.967 5.164-12.489 5.164z" fill="#26457d"/><path d="m404.905 211.442c16.515 0 29.951-13.436 29.951-29.951 0-2.848-2.308-5.156-5.156-5.156s-5.156 2.308-5.156 5.156c0 10.829-8.81 19.639-19.639 19.639-2.848 0-5.156 2.308-5.156 5.156s2.308 5.156 5.156 5.156z" fill="#ffcbbe"/><path d="m420.686 148.491c4.82 0 8.728-3.908 8.728-8.728v-18.183c0-4.82-3.908-8.728-8.728-8.728-4.82 0-8.728 3.908-8.728 8.728v18.183c.001 4.821 3.908 8.728 8.728 8.728z" fill="#21386b"/><path d="m366.865 148.491c4.82 0 8.728-3.908 8.728-8.728v-18.183c0-4.82-3.908-8.728-8.728-8.728-4.82 0-8.728 3.908-8.728 8.728v18.183c.001 4.821 3.908 8.728 8.728 8.728z" fill="#21386b"/><path d="m471.51 373.98v20.23c-9.8 15.26-21.18 29.41-33.92 42.22v-62.45z" fill="#ffddce"/><path d="m471.51 373.98v20.23c-5.91 9.2-12.39 17.99-19.4 26.33v-46.56z" fill="#ffcbbe"/></g><path d="m431.811 410.186-54.247-31.323c-5.099-2.944-11.473.736-11.473 6.624v8.775c0 4.224-3.424 7.648-7.648 7.648h-108.367c-4.224 0-7.648-3.424-7.648-7.648v-8.775c0-5.888-6.374-9.568-11.473-6.624l-54.247 31.323c-5.098 2.944-5.099 10.303 0 13.247l54.247 31.326c5.099 2.945 11.473-.735 11.473-6.623v-8.779c0-4.224 3.424-7.648 7.648-7.648h108.367c4.224 0 7.648 3.424 7.648 7.648v8.779c0 5.888 6.374 9.568 11.473 6.623l54.247-31.326c5.099-2.944 5.099-10.303 0-13.247z" fill="#21386b"/><g fill="#f9f6f6"><path d="m289.916 352.664c-9.95.125-20.59.196-28.296.178 4.44-5.859 11.367-15.166 21.617-29.812 4.877-6.969 8.048-13.513 9.424-19.45.181-1.015.525-3.517.561-4.543 0-14.781-12.025-26.806-26.807-26.806-12.781 0-23.843 9.091-26.304 21.617-.7 3.563 1.621 7.019 5.184 7.719s7.019-1.621 7.719-5.184c1.252-6.376 6.889-11.003 13.401-11.003 7.404 0 13.452 5.922 13.652 13.279l-.288 2.254c-1.039 4.223-3.499 9.125-7.315 14.578-12.553 17.936-20.046 27.747-24.072 33.018-4.838 6.334-6.467 8.468-5.301 12.262.668 2.172 2.321 3.841 4.537 4.58.871.29 1.972.658 17.176.658 5.971 0 14.117-.057 25.278-.197 3.631-.046 6.537-3.026 6.491-6.657-.046-3.63-3.067-6.537-6.657-6.491z"/><path d="m386.067 287.297c-8.83 0-16.735 4.03-21.976 10.346-5.241-6.316-13.146-10.346-21.976-10.346-5.702 0-11.014 1.687-15.476 4.578-.458-3.184-3.189-5.633-6.5-5.633-3.631 0-6.575 2.944-6.575 6.575v66.605c0 3.631 2.944 6.575 6.575 6.575s6.575-2.944 6.575-6.575v-43.574c0-8.492 6.909-15.401 15.401-15.401s15.401 6.909 15.401 15.401v43.574c0 3.631 2.944 6.575 6.575 6.575s6.574-2.944 6.574-6.575v-43.574c0-8.492 6.909-15.401 15.401-15.401s15.402 6.909 15.402 15.401v43.574c0 3.631 2.944 6.575 6.575 6.575s6.575-2.944 6.575-6.575v-43.574c-.001-15.743-12.808-28.551-28.551-28.551z"/></g></g><g><path d="m512 256c0 40.57-9.44 78.94-26.25 113.03-9.14 18.55-34.98-10.73-48.16 4.95-28 33.35-49.84 106.01-91.33 121.65-28.07 10.58-58.49 16.37-90.26 16.37-15.5 0-30.69-1.38-45.43-4.02-51.46-9.21-67.622-78.764-103.482-113.814-12.8-12.5-54.258 18.624-64.218 3.694-27.08-40.61-42.87-89.39-42.87-141.86 0-141.38 114.62-256 256-256s256 114.62 256 256z" fill="#9dc6fb"/><g><path d="m210.57 429.09v78.89c-69.81-12.5-129.81-53.31-167.7-110.12 10.94-19.41 31.73-32.51 55.58-32.51h48.38c35.21 0 63.74 28.54 63.74 63.74z" fill="#dd5790"/><path d="m140.86 365.35c-35.2 0-63.74 28.53-63.74 63.74v10.03c-12.8-12.5-24.29-26.33-34.25-41.26 10.92-19.41 31.72-32.51 55.58-32.51z" fill="#9d549b"/><path d="m151.198 294.187v75.518c0 7.967-3.231 15.177-8.451 20.389-5.212 5.22-12.422 8.451-20.389 8.451-5.612 0-10.849-1.598-15.27-4.379-8.145-5.093-13.57-14.148-13.57-24.461v-75.518z" fill="#ffddce"/><path d="m151.198 294.187v71.972c-3.928.553-7.933.833-12.014.833-16.758 0-32.411-4.761-45.666-13.009v-59.797h57.68z" fill="#ffcbbe"/><path d="m107.088 323.503v70.663c-8.145-5.093-13.57-14.148-13.57-24.461v-46.202z" fill="#ffcbbe"/><path d="m104.222 92.319c-31.018 0-56.977 21.588-63.718 50.554l-15.366-15.366c-10.949 10.949-13.143 27.328-6.602 40.464h-18.536c0 19.387 15.716 35.103 35.103 35.103 1.243 0 2.469-.067 3.679-.193v6.208h107.157v-116.77z" fill="#21386b"/><path d="m42.406 213.392c-13.709 13.709-13.709 35.935 0 49.643 13.709 13.709 35.935 13.709 49.643 0" fill="#26457d"/><path d="m231.32 243.955h-191.636c-12.407 0-22.464-10.058-22.464-22.464 0-12.407 10.058-22.464 22.464-22.464h191.636c12.407 0 22.464 10.058 22.464 22.464.001 12.406-10.057 22.464-22.464 22.464z" fill="#ffcbbe"/><path d="m39.685 231.088c-5.292 0-9.597-4.305-9.597-9.597s4.305-9.597 9.597-9.597h191.635c5.292 0 9.597 4.305 9.597 9.597s-4.305 9.597-9.597 9.597z" fill="#eaac9d"/><path d="m139.184 353.985c-47.855 0-86.649-38.794-86.649-86.649v-61.434c0-47.855 38.794-86.649 86.649-86.649h48.29c21.185 0 38.358 17.174 38.358 38.358v109.724c.001 47.856-38.793 86.65-86.648 86.65z" fill="#ffddce"/><path d="m160.567 351.324c-6.838 1.737-13.998 2.656-21.378 2.656-47.858 0-86.653-38.786-86.653-86.644v-61.433c0-47.858 38.795-86.653 86.653-86.653h42.747c-47.848 0-86.644 38.795-86.644 86.653v61.433c0 40.487 27.757 74.475 65.275 83.988z" fill="#ffcbbe"/><path d="m116.742 221.949c-6.077 0-11.003-4.926-11.003-11.003v-22.923c0-6.077 4.926-11.003 11.003-11.003 6.077 0 11.003 4.926 11.003 11.003v22.923c0 6.077-4.927 11.003-11.003 11.003z" fill="#21386b"/><path d="m184.594 221.949c-6.077 0-11.003-4.926-11.003-11.003v-22.923c0-6.077 4.926-11.003 11.003-11.003 6.077 0 11.003 4.926 11.003 11.003v22.923c0 6.077-4.927 11.003-11.003 11.003z" fill="#21386b"/><path d="m161.671 244.413h-22.006v-114.156c0-6.077 4.926-11.003 11.003-11.003 6.077 0 11.003 4.926 11.003 11.003z" fill="#ffcbbe"/><path d="m75.92 103.339v13.064c-16.855 6.173-28.883 22.357-28.883 41.35v41.272h6.066c21.717 0 39.321-17.605 39.321-39.321v-26.413h18.465c16.135 0 29.215-13.08 29.215-29.215v-.738h-64.184z" fill="#21386b"/><path d="m218.791 101.51 19.585-19.586c-18.465-18.465-48.404-18.465-66.869 0v-27.697c-26.114 0-47.284 21.17-47.284 47.284s21.17 47.283 47.284 47.283h94.567c0-26.114-21.169-47.284-47.283-47.284z" fill="#26457d"/><g fill="#ffcbbe"><path d="m163.847 228.265h-17.727c-6.808 0-12.327 5.519-12.327 12.327 0 6.808 5.519 12.327 12.327 12.327h17.727c6.808 0 12.327-5.519 12.327-12.327 0-6.807-5.519-12.327-12.327-12.327z"/><path d="m143.354 301.31c-20.82 0-37.759-16.938-37.759-37.759 0-3.59 2.91-6.5 6.5-6.5s6.5 2.91 6.5 6.5c0 13.652 11.107 24.759 24.759 24.759 3.59 0 6.5 2.91 6.5 6.5s-2.91 6.5-6.5 6.5z"/></g></g><g><path d="m325.245 194.34v-96.466c0-46.763 37.909-84.672 84.672-84.672 46.763 0 84.672 37.909 84.672 84.672v95.339c9.787 1.053 17.409 9.337 17.409 19.404 0 10.78-8.739 19.519-19.519 19.519h-160.376c-10.78 0-19.519-8.739-19.519-19.519-.001-8.367 5.264-15.501 12.661-18.277z" fill="#ffe07d"/><path d="m442.621 212.612c0 5.394-2.181 10.272-5.711 13.81-3.53 3.53-8.416 5.711-13.802 5.711h69.371c5.386 0 10.272-2.181 13.802-5.711 3.53-3.538 5.719-8.416 5.719-13.81 0-10.066-7.623-18.347-17.411-19.402v-95.336c0-23.384-9.479-44.547-24.804-59.872-15.317-15.325-36.488-24.804-59.872-24.804-6.671 0-13.159.769-19.386 2.229 15.595 3.657 29.531 11.621 40.486 22.575 15.325 15.325 24.804 36.488 24.804 59.872v95.336c9.78 1.055-13.196 9.337-13.196 19.402z" fill="#ffc250"/><path d="m485.75 312.8v56.23c-4.28 8.68-9.04 17.09-14.24 25.18-5.91 9.2-12.39 17.99-19.4 26.33-4.61 5.5-9.46 10.8-14.52 15.89-25.61 25.78-56.68 46.14-91.33 59.2v-182.83c0-27.92 22.63-50.56 50.56-50.56h38.38c27.92 0 50.55 22.64 50.55 50.56z" fill="#78c2a4"/><path d="m485.75 312.8v56.23c-9.14 18.55-20.46 35.83-33.64 51.51v-107.74c0-27.93-22.64-50.56-50.56-50.56h33.64c27.93 0 50.56 22.63 50.56 50.56z" fill="#66b394"/><path d="m393.355 205.792v59.902c0 6.319 2.563 12.038 6.704 16.172 4.134 4.141 9.853 6.704 16.172 6.704 4.451 0 8.606-1.268 12.113-3.473 6.461-4.04 10.764-11.222 10.764-19.403v-59.902z" fill="#ffddce"/><g fill="#ffcbbe"><path d="m393.355 205.792v57.089c3.116.438 6.292.661 9.53.661 13.293 0 25.709-3.777 36.223-10.319v-47.432h-45.753z"/><path d="m428.344 229.046v56.051c6.461-4.04 10.764-11.222 10.764-19.403v-36.648z"/><path d="m329.801 165.947h152.008c9.841 0 17.819-7.978 17.819-17.819 0-9.841-7.978-17.819-17.819-17.819h-152.008c-9.841 0-17.819 7.978-17.819 17.819 0 9.841 7.978 17.819 17.819 17.819z"/></g><path d="m481.809 155.74c4.198 0 7.613-3.415 7.613-7.612 0-4.198-3.415-7.613-7.613-7.613h-152.008c-4.198 0-7.613 3.415-7.613 7.612s3.415 7.613 7.613 7.613z" fill="#eaac9d"/><path d="m334.153 117.816v66.678c0 37.955 30.769 68.732 68.732 68.732 37.955 0 68.732-30.777 68.732-68.732v-66.678c0-3.641-.286-7.218-.833-10.708h-56.842c-3.974 0-7.813-.579-11.438-1.666-6.734-1.999-12.731-5.727-17.459-10.669-3.538-3.681-6.377-8.035-8.305-12.85-5.917 14.754-20.338 25.185-37.21 25.185h-4.545c-.546 3.49-.832 7.067-.832 10.708z" fill="#ffddce"/><path d="m385.474 250.997c5.56 1.459 11.398 2.229 17.411 2.229 37.955 0 68.732-30.777 68.732-68.732v-66.678c0-3.641-.286-7.218-.833-10.708h-34.814c.547 3.49.833 7.068.833 10.708v66.678c0 31.942-21.797 58.801-51.329 66.503z" fill="#ffcbbe"/><path d="m385.046 94.773v71.54h17.459v-60.871c-6.735-1.999-12.731-5.727-17.459-10.669z" fill="#ffcbbe"/><path d="m383.322 153.502h14.061c5.4 0 9.778 4.378 9.778 9.778 0 5.4-4.378 9.778-9.778 9.778h-14.061c-5.4 0-9.778-4.378-9.778-9.778 0-5.4 4.378-9.778 9.778-9.778z" fill="#ffcbbe"/><path d="m431.794 127.94c-4.523 0-9.045-1.721-12.488-5.164-1.953-1.953-1.953-5.119 0-7.071 1.953-1.953 5.118-1.953 7.071 0 2.987 2.988 7.847 2.987 10.835 0 1.953-1.953 5.118-1.952 7.071 0 1.953 1.953 1.953 5.119 0 7.071-3.443 3.442-7.967 5.164-12.489 5.164z" fill="#26457d"/><path d="m356.019 127.94c-4.523 0-9.045-1.721-12.488-5.164-1.953-1.952-1.953-5.118 0-7.071 1.952-1.953 5.119-1.953 7.071 0 2.987 2.987 7.849 2.987 10.835 0 1.953-1.953 5.118-1.953 7.071 0s1.953 5.119 0 7.071c-3.444 3.443-7.967 5.164-12.489 5.164z" fill="#26457d"/><path d="m404.905 211.442c16.515 0 29.951-13.436 29.951-29.951 0-2.848-2.308-5.156-5.156-5.156s-5.156 2.308-5.156 5.156c0 10.829-8.81 19.639-19.639 19.639-2.848 0-5.156 2.308-5.156 5.156s2.308 5.156 5.156 5.156z" fill="#ffcbbe"/><path d="m420.686 148.491c4.82 0 8.728-3.908 8.728-8.728v-18.183c0-4.82-3.908-8.728-8.728-8.728-4.82 0-8.728 3.908-8.728 8.728v18.183c.001 4.821 3.908 8.728 8.728 8.728z" fill="#21386b"/><path d="m366.865 148.491c4.82 0 8.728-3.908 8.728-8.728v-18.183c0-4.82-3.908-8.728-8.728-8.728-4.82 0-8.728 3.908-8.728 8.728v18.183c.001 4.821 3.908 8.728 8.728 8.728z" fill="#21386b"/><path d="m471.51 373.98v20.23c-9.8 15.26-21.18 29.41-33.92 42.22v-62.45z" fill="#ffddce"/><path d="m471.51 373.98v20.23c-5.91 9.2-12.39 17.99-19.4 26.33v-46.56z" fill="#ffcbbe"/></g><path d="m431.811 410.186-54.247-31.323c-5.099-2.944-11.473.736-11.473 6.624v8.775c0 4.224-3.424 7.648-7.648 7.648h-108.367c-4.224 0-7.648-3.424-7.648-7.648v-8.775c0-5.888-6.374-9.568-11.473-6.624l-54.247 31.323c-5.098 2.944-5.099 10.303 0 13.247l54.247 31.326c5.099 2.945 11.473-.735 11.473-6.623v-8.779c0-4.224 3.424-7.648 7.648-7.648h108.367c4.224 0 7.648 3.424 7.648 7.648v8.779c0 5.888 6.374 9.568 11.473 6.623l54.247-31.326c5.099-2.944 5.099-10.303 0-13.247z" fill="#21386b"/><g fill="#f9f6f6"><path d="m289.916 352.664c-9.95.125-20.59.196-28.296.178 4.44-5.859 11.367-15.166 21.617-29.812 4.877-6.969 8.048-13.513 9.424-19.45.181-1.015.525-3.517.561-4.543 0-14.781-12.025-26.806-26.807-26.806-12.781 0-23.843 9.091-26.304 21.617-.7 3.563 1.621 7.019 5.184 7.719s7.019-1.621 7.719-5.184c1.252-6.376 6.889-11.003 13.401-11.003 7.404 0 13.452 5.922 13.652 13.279l-.288 2.254c-1.039 4.223-3.499 9.125-7.315 14.578-12.553 17.936-20.046 27.747-24.072 33.018-4.838 6.334-6.467 8.468-5.301 12.262.668 2.172 2.321 3.841 4.537 4.58.871.29 1.972.658 17.176.658 5.971 0 14.117-.057 25.278-.197 3.631-.046 6.537-3.026 6.491-6.657-.046-3.63-3.067-6.537-6.657-6.491z"/><path d="m386.067 287.297c-8.83 0-16.735 4.03-21.976 10.346-5.241-6.316-13.146-10.346-21.976-10.346-5.702 0-11.014 1.687-15.476 4.578-.458-3.184-3.189-5.633-6.5-5.633-3.631 0-6.575 2.944-6.575 6.575v66.605c0 3.631 2.944 6.575 6.575 6.575s6.575-2.944 6.575-6.575v-43.574c0-8.492 6.909-15.401 15.401-15.401s15.401 6.909 15.401 15.401v43.574c0 3.631 2.944 6.575 6.575 6.575s6.574-2.944 6.574-6.575v-43.574c0-8.492 6.909-15.401 15.401-15.401s15.402 6.909 15.402 15.401v43.574c0 3.631 2.944 6.575 6.575 6.575s6.575-2.944 6.575-6.575v-43.574c-.001-15.743-12.808-28.551-28.551-28.551z"/></g></g></g></svg>